<svg xmlns="http://www.w3.org/2000/svg" viewBox="0 0 920 680" role="img" aria-labelledby="title desc">
  <title id="title">SUPRSLIM weekmenu en afspraak funnel</title>
  <desc id="desc">Een warme illustratie van een gezonde keukentafel, weekmenu, boodschappen en een afspraakkaart.</desc>
  <defs>
    <linearGradient id="bg" x1="0" x2="1" y1="0" y2="1">
      <stop offset="0%" stop-color="#e9ffe4"/>
      <stop offset="52%" stop-color="#fff8eb"/>
      <stop offset="100%" stop-color="#ffe7d8"/>
    </linearGradient>
    <linearGradient id="leaf" x1="0" x2="1">
      <stop offset="0%" stop-color="#21a65b"/>
      <stop offset="100%" stop-color="#86d65a"/>
    </linearGradient>
    <filter id="shadow" x="-20%" y="-20%" width="140%" height="140%">
      <feDropShadow dx="0" dy="18" stdDeviation="22" flood-color="#17351f" flood-opacity="0.18"/>
    </filter>
  </defs>
  <rect width="920" height="680" rx="46" fill="url(#bg)"/>
  <circle cx="790" cy="112" r="78" fill="#ffb26f" opacity="0.35"/>
  <circle cx="126" cy="586" r="96" fill="#86d65a" opacity="0.25"/>
  <path d="M68 166c60-70 127-80 202-31 56 37 114 15 172-25 83-58 182-45 242 20 64 69 51 171-6 231-74 78-165 45-236 101-99 77-207 40-276-30-70-71-163-171-98-266z" fill="#fff" opacity="0.72"/>

  <g filter="url(#shadow)">
    <rect x="106" y="144" width="418" height="440" rx="34" fill="#ffffff"/>
    <rect x="144" y="186" width="220" height="30" rx="15" fill="#17351f"/>
    <rect x="144" y="238" width="304" height="18" rx="9" fill="#dcebdd"/>
    <rect x="144" y="274" width="248" height="18" rx="9" fill="#dcebdd"/>
    <rect x="144" y="332" width="154" height="56" rx="18" fill="#e8f8df"/>
    <rect x="318" y="332" width="154" height="56" rx="18" fill="#fff0e7"/>
    <rect x="144" y="414" width="328" height="76" rx="22" fill="#17351f"/>
    <path d="M174 454l26 22 54-64" fill="none" stroke="#86d65a" stroke-width="16" stroke-linecap="round" stroke-linejoin="round"/>
    <rect x="284" y="446" width="148" height="16" rx="8" fill="#dff3df" opacity="0.88"/>
    <rect x="144" y="520" width="260" height="18" rx="9" fill="#dcebdd"/>
  </g>

  <g filter="url(#shadow)">
    <rect x="548" y="218" width="268" height="256" rx="32" fill="#ffffff"/>
    <rect x="582" y="252" width="200" height="40" rx="20" fill="#ff7a3d"/>
    <rect x="586" y="322" width="56" height="56" rx="18" fill="#e8f8df"/>
    <rect x="662" y="322" width="56" height="56" rx="18" fill="#e8f8df"/>
    <rect x="738" y="322" width="44" height="56" rx="18" fill="#fff0e7"/>
    <rect x="586" y="408" width="128" height="18" rx="9" fill="#dcebdd"/>
    <rect x="586" y="438" width="170" height="18" rx="9" fill="#dcebdd"/>
  </g>

  <g transform="translate(596 96)">
    <path d="M84 90c-62-15-92-53-81-92 54 6 91 38 108 92z" fill="url(#leaf)"/>
    <path d="M126 88c17-58 59-86 116-78-7 47-48 83-116 78z" fill="url(#leaf)" opacity="0.9"/>
    <path d="M112 94C97 52 98 19 112 0c31 35 36 68 0 94z" fill="#1f8f4d"/>
  </g>

  <g transform="translate(615 492)">
    <ellipse cx="86" cy="64" rx="104" ry="34" fill="#17351f" opacity="0.14"/>
    <circle cx="38" cy="34" r="34" fill="#ff7a3d"/>
    <circle cx="92" cy="28" r="28" fill="#86d65a"/>
    <circle cx="138" cy="44" r="36" fill="#ffd48d"/>
    <path d="M16 68c42 24 104 26 152 0" fill="none" stroke="#17351f" stroke-width="12" stroke-linecap="round" opacity="0.18"/>
  </g>
</svg>
